<svg width="25" height="24" viewBox="0 0 25 24" fill="none" xmlns="http://www.w3.org/2000/svg">
<mask id="mask0_693_16695" style="mask-type:alpha" maskUnits="userSpaceOnUse" x="0" y="0" width="25" height="24">
<rect x="0.523438" width="24" height="24" fill="#D9D9D9"/>
</mask>
<g mask="url(#mask0_693_16695)">
<path d="M12.5234 16C13.7734 16 14.8359 15.5625 15.7109 14.6875C16.5859 13.8125 17.0234 12.75 17.0234 11.5C17.0234 10.25 16.5859 9.1875 15.7109 8.3125C14.8359 7.4375 13.7734 7 12.5234 7C11.2734 7 10.2109 7.4375 9.33594 8.3125C8.46094 9.1875 8.02344 10.25 8.02344 11.5C8.02344 12.75 8.46094 13.8125 9.33594 14.6875C10.2109 15.5625 11.2734 16 12.5234 16ZM12.5234 14.2C11.7734 14.2 11.1359 13.9375 10.6109 13.4125C10.0859 12.8875 9.82344 12.25 9.82344 11.5C9.82344 10.75 10.0859 10.1125 10.6109 9.5875C11.1359 9.0625 11.7734 8.8 12.5234 8.8C13.2734 8.8 13.9109 9.0625 14.4359 9.5875C14.9609 10.1125 15.2234 10.75 15.2234 11.5C15.2234 12.25 14.9609 12.8875 14.4359 13.4125C13.9109 13.9375 13.2734 14.2 12.5234 14.2ZM12.5234 19C10.0901 19 7.87344 18.3208 5.87344 16.9625C3.87344 15.6042 2.42344 13.7833 1.52344 11.5C2.42344 9.21667 3.87344 7.39583 5.87344 6.0375C7.87344 4.67917 10.0901 4 12.5234 4C14.9568 4 17.1734 4.67917 19.1734 6.0375C21.1734 7.39583 22.6234 9.21667 23.5234 11.5C22.6234 13.7833 21.1734 15.6042 19.1734 16.9625C17.1734 18.3208 14.9568 19 12.5234 19ZM12.5234 17C14.4068 17 16.1359 16.5042 17.7109 15.5125C19.2859 14.5208 20.4901 13.1833 21.3234 11.5C20.4901 9.81667 19.2859 8.47917 17.7109 7.4875C16.1359 6.49583 14.4068 6 12.5234 6C10.6401 6 8.91094 6.49583 7.33594 7.4875C5.76094 8.47917 4.55677 9.81667 3.72344 11.5C4.55677 13.1833 5.76094 14.5208 7.33594 15.5125C8.91094 16.5042 10.6401 17 12.5234 17Z" fill="#909090"/>
</g>
</svg>
