<svg width="31" height="30" viewBox="0 0 31 30" fill="none" xmlns="http://www.w3.org/2000/svg">
<g clip-path="url(#clip0_693_16689)">
<path d="M24.8984 11.25H22.3984V8.125C22.3984 6.30164 21.6741 4.55295 20.3848 3.26364C19.0955 1.97433 17.3468 1.25 15.5234 1.25H14.2734C12.4501 1.25 10.7014 1.97433 9.41208 3.26364C8.12277 4.55295 7.39844 6.30164 7.39844 8.125V11.25H4.89844C4.56692 11.25 4.24897 11.3817 4.01455 11.6161C3.78013 11.8505 3.64844 12.1685 3.64844 12.5V27.5C3.64844 27.8315 3.78013 28.1495 4.01455 28.3839C4.24897 28.6183 4.56692 28.75 4.89844 28.75H24.8984C25.23 28.75 25.5479 28.6183 25.7823 28.3839C26.0167 28.1495 26.1484 27.8315 26.1484 27.5V12.5C26.1484 12.1685 26.0167 11.8505 25.7823 11.6161C25.5479 11.3817 25.23 11.25 24.8984 11.25ZM9.89844 8.125C9.89844 6.96468 10.3594 5.85188 11.1798 5.03141C12.0003 4.21094 13.1131 3.75 14.2734 3.75H15.5234C16.6838 3.75 17.7966 4.21094 18.617 5.03141C19.4375 5.85188 19.8984 6.96468 19.8984 8.125V11.25H9.89844V8.125ZM9.27344 21.875C8.9026 21.875 8.54009 21.765 8.23174 21.559C7.9234 21.353 7.68308 21.0601 7.54116 20.7175C7.39925 20.3749 7.36212 19.9979 7.43446 19.6342C7.50681 19.2705 7.68539 18.9364 7.94761 18.6742C8.20984 18.412 8.54393 18.2334 8.90764 18.161C9.27136 18.0887 9.64836 18.1258 9.99097 18.2677C10.3336 18.4096 10.6264 18.65 10.8324 18.9583C11.0385 19.2666 11.1484 19.6292 11.1484 20C11.1572 20.2486 11.1146 20.4963 11.0235 20.7277C10.9324 20.9592 10.7946 21.1694 10.6187 21.3452C10.4428 21.5211 10.2326 21.6589 10.0012 21.7501C9.76973 21.8412 9.52202 21.8837 9.27344 21.875ZM14.8984 21.875C14.5276 21.875 14.1651 21.765 13.8567 21.559C13.5484 21.353 13.3081 21.0601 13.1662 20.7175C13.0242 20.3749 12.9871 19.9979 13.0595 19.6342C13.1318 19.2705 13.3104 18.9364 13.5726 18.6742C13.8348 18.412 14.1689 18.2334 14.5326 18.161C14.8964 18.0887 15.2734 18.1258 15.616 18.2677C15.9586 18.4096 16.2514 18.65 16.4574 18.9583C16.6635 19.2666 16.7734 19.6292 16.7734 20C16.7822 20.2486 16.7396 20.4963 16.6485 20.7277C16.5574 20.9592 16.4196 21.1694 16.2437 21.3452C16.0678 21.5211 15.8576 21.6589 15.6262 21.7501C15.3947 21.8412 15.147 21.8837 14.8984 21.875ZM20.5234 21.875C20.1526 21.875 19.7901 21.765 19.4817 21.559C19.1734 21.353 18.9331 21.0601 18.7912 20.7175C18.6492 20.3749 18.6121 19.9979 18.6845 19.6342C18.7568 19.2705 18.9354 18.9364 19.1976 18.6742C19.4598 18.412 19.7939 18.2334 20.1576 18.161C20.5214 18.0887 20.8984 18.1258 21.241 18.2677C21.5836 18.4096 21.8764 18.65 22.0824 18.9583C22.2885 19.2666 22.3984 19.6292 22.3984 20C22.4072 20.2486 22.3646 20.4963 22.2735 20.7277C22.1824 20.9592 22.0446 21.1694 21.8687 21.3452C21.6928 21.5211 21.4826 21.6589 21.2512 21.7501C21.0197 21.8412 20.772 21.8837 20.5234 21.875Z" fill="#1675DC"/>
</g>
<defs>
<clipPath id="clip0_693_16689">
<rect width="30" height="30" fill="white" transform="translate(0.523438)"/>
</clipPath>
</defs>
</svg>
